<svg width="800" height="600" viewBox="0 0 800 600" fill="none" xmlns="http://www.w3.org/2000/svg">
  <rect width="800" height="600" fill="#0f172a"/>

  <defs>
    <linearGradient id="grad2" x1="0%" y1="0%" x2="100%" y2="100%">
      <stop offset="0%" style="stop-color:#06b6d4;stop-opacity:0.2" />
      <stop offset="100%" style="stop-color:#3b82f6;stop-opacity:0.1" />
    </linearGradient>
  </defs>
  <rect width="800" height="600" fill="url(#grad2)"/>

  <!-- Document editor mockup -->
  <rect x="80" y="60" width="640" height="480" rx="16" fill="#1e293b" stroke="#334155" stroke-width="1"/>

  <!-- Header -->
  <rect x="80" y="60" width="640" height="50" rx="16" fill="#0f172a"/>
  <circle cx="110" cy="85" r="8" fill="#ef4444"/>
  <circle cx="135" cy="85" r="8" fill="#f59e0b"/>
  <circle cx="160" cy="85" r="8" fill="#22c55e"/>

  <!-- Toolbar -->
  <rect x="80" y="110" width="640" height="40" fill="#0f172a"/>
  <rect x="100" y="122" width="60" height="16" rx="4" fill="#334155"/>
  <rect x="175" y="122" width="60" height="16" rx="4" fill="#334155"/>
  <rect x="250" y="122" width="60" height="16" rx="4" fill="#334155"/>

  <!-- Document content -->
  <rect x="100" y="170" width="500" height="20" rx="2" fill="#475569"/>
  <rect x="100" y="205" width="580" height="12" rx="2" fill="#334155"/>
  <rect x="100" y="230" width="520" height="12" rx="2" fill="#334155"/>
  <rect x="100" y="255" width="560" height="12" rx="2" fill="#334155"/>
  <rect x="100" y="280" width="480" height="12" rx="2" fill="#334155"/>
  <rect x="100" y="305" width="540" height="12" rx="2" fill="#334155"/>

  <!-- Cursor indicator -->
  <rect x="380" y="255" width="2" height="16" fill="#3b82f6"/>

  <!-- User avatars (collaboration indicators) -->
  <circle cx="680" cy="85" r="14" fill="#3b82f6"/>
  <circle cx="655" cy="85" r="14" fill="#8b5cf6"/>
  <circle cx="630" cy="85" r="14" fill="#06b6d4"/>
  <text x="676" y="90" font-family="system-ui" font-size="12" fill="white">K</text>
  <text x="651" y="90" font-family="system-ui" font-size="12" fill="white">A</text>
  <text x="626" y="90" font-family="system-ui" font-size="12" fill="white">J</text>

  <!-- Comment sidebar -->
  <rect x="620" y="170" width="80" height="120" rx="8" fill="#0f172a"/>
  <circle cx="640" cy="195" r="10" fill="#8b5cf6"/>
  <rect x="655" y="188" width="35" height="6" rx="1" fill="#475569"/>
  <rect x="632" y="215" width="55" height="8" rx="1" fill="#334155"/>
  <rect x="632" y="230" width="45" height="8" rx="1" fill="#334155"/>
</svg>
