<svg width="800" height="600" viewBox="0 0 800 600" fill="none" xmlns="http://www.w3.org/2000/svg">
  <rect width="800" height="600" fill="#0f172a"/>

  <defs>
    <linearGradient id="gradAI5" x1="0%" y1="0%" x2="100%" y2="100%">
      <stop offset="0%" style="stop-color:#ec4899;stop-opacity:0.2" />
      <stop offset="100%" style="stop-color:#8b5cf6;stop-opacity:0.1" />
    </linearGradient>
  </defs>
  <rect width="800" height="600" fill="url(#gradAI5)"/>

  <!-- Title -->
  <text x="60" y="50" font-family="system-ui" font-size="24" font-weight="bold" fill="white">Recommendation Engine</text>
  <text x="60" y="75" font-family="system-ui" font-size="12" fill="#64748b">Hybrid Collaborative + Content-Based Filtering</text>

  <!-- User-Item Matrix visualization -->
  <rect x="60" y="100" width="300" height="220" rx="12" fill="#1e293b" stroke="#334155"/>
  <text x="80" y="130" font-family="system-ui" font-size="12" font-weight="bold" fill="white">User-Item Matrix</text>

  <!-- Matrix grid -->
  <g fill="none" stroke="#334155" stroke-width="1">
    <line x1="100" y1="160" x2="330" y2="160"/>
    <line x1="100" y1="190" x2="330" y2="190"/>
    <line x1="100" y1="220" x2="330" y2="220"/>
    <line x1="100" y1="250" x2="330" y2="250"/>
    <line x1="100" y1="280" x2="330" y2="280"/>
    <line x1="130" y1="145" x2="130" y2="300"/>
    <line x1="170" y1="145" x2="170" y2="300"/>
    <line x1="210" y1="145" x2="210" y2="300"/>
    <line x1="250" y1="145" x2="250" y2="300"/>
    <line x1="290" y1="145" x2="290" y2="300"/>
    <line x1="330" y1="145" x2="330" y2="300"/>
  </g>

  <!-- Matrix values -->
  <text x="145" y="180" font-family="system-ui" font-size="10" fill="#22c55e">5</text>
  <text x="185" y="180" font-family="system-ui" font-size="10" fill="#3b82f6">4</text>
  <text x="225" y="180" font-family="system-ui" font-size="10" fill="#64748b">?</text>
  <text x="265" y="180" font-family="system-ui" font-size="10" fill="#22c55e">5</text>
  <text x="305" y="180" font-family="system-ui" font-size="10" fill="#64748b">?</text>

  <text x="145" y="210" font-family="system-ui" font-size="10" fill="#64748b">?</text>
  <text x="185" y="210" font-family="system-ui" font-size="10" fill="#22c55e">5</text>
  <text x="225" y="210" font-family="system-ui" font-size="10" fill="#3b82f6">4</text>
  <text x="265" y="210" font-family="system-ui" font-size="10" fill="#64748b">?</text>
  <text x="305" y="210" font-family="system-ui" font-size="10" fill="#3b82f6">3</text>

  <text x="145" y="240" font-family="system-ui" font-size="10" fill="#3b82f6">4</text>
  <text x="185" y="240" font-family="system-ui" font-size="10" fill="#64748b">?</text>
  <text x="225" y="240" font-family="system-ui" font-size="10" fill="#22c55e">5</text>
  <text x="265" y="240" font-family="system-ui" font-size="10" fill="#3b82f6">4</text>
  <text x="305" y="240" font-family="system-ui" font-size="10" fill="#64748b">?</text>

  <text x="145" y="270" font-family="system-ui" font-size="10" fill="#64748b">?</text>
  <text x="185" y="270" font-family="system-ui" font-size="10" fill="#3b82f6">3</text>
  <text x="225" y="270" font-family="system-ui" font-size="10" fill="#64748b">?</text>
  <text x="265" y="270" font-family="system-ui" font-size="10" fill="#22c55e">5</text>
  <text x="305" y="270" font-family="system-ui" font-size="10" fill="#22c55e">5</text>

  <!-- Embedding space -->
  <rect x="400" y="100" width="340" height="220" rx="12" fill="#1e293b" stroke="#334155"/>
  <text x="420" y="130" font-family="system-ui" font-size="12" font-weight="bold" fill="white">Embedding Space</text>

  <!-- Embedding points -->
  <circle cx="480" cy="180" r="8" fill="#ec4899"/>
  <circle cx="520" cy="200" r="8" fill="#ec4899"/>
  <circle cx="500" cy="240" r="8" fill="#ec4899"/>
  <text x="540" y="185" font-family="system-ui" font-size="9" fill="#ec4899">User Cluster A</text>

  <circle cx="620" cy="170" r="8" fill="#3b82f6"/>
  <circle cx="660" cy="190" r="8" fill="#3b82f6"/>
  <circle cx="640" cy="220" r="8" fill="#3b82f6"/>
  <text x="680" y="175" font-family="system-ui" font-size="9" fill="#3b82f6">User Cluster B</text>

  <circle cx="550" cy="280" r="6" fill="#22c55e"/>
  <circle cx="590" cy="260" r="6" fill="#22c55e"/>
  <circle cx="630" cy="290" r="6" fill="#22c55e"/>
  <text x="650" y="290" font-family="system-ui" font-size="9" fill="#22c55e">Items</text>

  <!-- Connection lines -->
  <line x1="480" y1="180" x2="550" y2="280" stroke="#ec4899" stroke-width="1" opacity="0.3"/>
  <line x1="520" y1="200" x2="590" y2="260" stroke="#ec4899" stroke-width="1" opacity="0.3"/>
  <line x1="620" y1="170" x2="590" y2="260" stroke="#3b82f6" stroke-width="1" opacity="0.3"/>
  <line x1="660" y1="190" x2="630" y2="290" stroke="#3b82f6" stroke-width="1" opacity="0.3"/>

  <!-- Recommendations panel -->
  <rect x="60" y="340" width="280" height="220" rx="12" fill="#1e293b" stroke="#334155"/>
  <text x="80" y="375" font-family="system-ui" font-size="12" font-weight="bold" fill="white">Personalized Recommendations</text>

  <rect x="80" y="395" width="240" height="50" rx="8" fill="#0f172a"/>
  <circle cx="110" cy="420" r="15" fill="#ec4899"/>
  <text x="135" y="415" font-family="system-ui" font-size="11" fill="white">Electronic Beats</text>
  <text x="135" y="432" font-family="system-ui" font-size="9" fill="#64748b">98% match</text>
  <rect x="280" y="410" width="30" height="20" rx="4" fill="#22c55e"/>
  <text x="288" y="424" font-family="system-ui" font-size="9" fill="white">+</text>

  <rect x="80" y="455" width="240" height="50" rx="8" fill="#0f172a"/>
  <circle cx="110" cy="480" r="15" fill="#3b82f6"/>
  <text x="135" y="475" font-family="system-ui" font-size="11" fill="white">Jazz Collection</text>
  <text x="135" y="492" font-family="system-ui" font-size="9" fill="#64748b">94% match</text>

  <rect x="80" y="515" width="240" height="40" rx="8" fill="#0f172a"/>
  <circle cx="110" cy="535" r="12" fill="#8b5cf6"/>
  <text x="135" y="540" font-family="system-ui" font-size="11" fill="white">Lo-Fi Study</text>

  <!-- Metrics -->
  <rect x="360" y="340" width="170" height="100" rx="12" fill="#1e293b"/>
  <text x="380" y="375" font-family="system-ui" font-size="10" fill="#64748b">Active Users</text>
  <text x="380" y="415" font-family="system-ui" font-size="32" font-weight="bold" fill="#ec4899">1M+</text>

  <rect x="360" y="460" width="170" height="100" rx="12" fill="#1e293b"/>
  <text x="380" y="495" font-family="system-ui" font-size="10" fill="#64748b">CTR Improvement</text>
  <text x="380" y="535" font-family="system-ui" font-size="32" font-weight="bold" fill="#22c55e">+35%</text>

  <rect x="550" y="340" width="190" height="100" rx="12" fill="#1e293b"/>
  <text x="570" y="375" font-family="system-ui" font-size="10" fill="#64748b">P99 Latency</text>
  <text x="570" y="415" font-family="system-ui" font-size="32" font-weight="bold" fill="#3b82f6">&lt;50ms</text>

  <rect x="550" y="460" width="190" height="100" rx="12" fill="#1e293b"/>
  <text x="570" y="495" font-family="system-ui" font-size="10" fill="#64748b">Tech Stack</text>
  <text x="570" y="520" font-family="system-ui" font-size="10" fill="#8b5cf6">PyTorch • Redis</text>
  <text x="570" y="540" font-family="system-ui" font-size="10" fill="#8b5cf6">FastAPI • Pinecone</text>
</svg>
