<svg width="800" height="600" viewBox="0 0 800 600" fill="none" xmlns="http://www.w3.org/2000/svg">
  <rect width="800" height="600" fill="#0f172a"/>

  <defs>
    <linearGradient id="grad4" x1="0%" y1="0%" x2="100%" y2="100%">
      <stop offset="0%" style="stop-color:#f59e0b;stop-opacity:0.2" />
      <stop offset="100%" style="stop-color:#22c55e;stop-opacity:0.1" />
    </linearGradient>
  </defs>
  <rect width="800" height="600" fill="url(#grad4)"/>

  <!-- Main trading interface -->
  <rect x="40" y="40" width="720" height="520" rx="16" fill="#1e293b" stroke="#334155" stroke-width="1"/>

  <!-- Header -->
  <rect x="40" y="40" width="720" height="50" rx="16" fill="#0f172a"/>
  <text x="70" y="72" font-family="system-ui" font-size="18" font-weight="bold" fill="white">CryptoTrade Pro</text>
  <rect x="600" y="55" width="80" height="24" rx="4" fill="#22c55e" opacity="0.2"/>
  <text x="615" y="72" font-family="system-ui" font-size="12" fill="#22c55e">+5.24%</text>
  <rect x="690" y="55" width="50" height="24" rx="4" fill="#3b82f6"/>
  <text x="700" y="72" font-family="system-ui" font-size="11" fill="white">Trade</text>

  <!-- Price display -->
  <text x="60" y="130" font-family="system-ui" font-size="14" fill="#64748b">BTC/USD</text>
  <text x="60" y="165" font-family="system-ui" font-size="36" font-weight="bold" fill="white">$43,256.78</text>
  <text x="260" y="165" font-family="system-ui" font-size="16" fill="#22c55e">+1,234.56 (2.85%)</text>

  <!-- Candlestick chart area -->
  <rect x="60" y="190" width="500" height="280" rx="8" fill="#0f172a"/>

  <!-- Candlesticks -->
  <g fill="none" stroke-width="2">
    <line x1="100" y1="250" x2="100" y2="350" stroke="#22c55e"/>
    <rect x="95" y="270" width="10" height="60" fill="#22c55e"/>

    <line x1="140" y1="280" x2="140" y2="380" stroke="#ef4444"/>
    <rect x="135" y="300" width="10" height="60" fill="#ef4444"/>

    <line x1="180" y1="240" x2="180" y2="340" stroke="#22c55e"/>
    <rect x="175" y="260" width="10" height="50" fill="#22c55e"/>

    <line x1="220" y1="260" x2="220" y2="360" stroke="#22c55e"/>
    <rect x="215" y="280" width="10" height="55" fill="#22c55e"/>

    <line x1="260" y1="250" x2="260" y2="350" stroke="#ef4444"/>
    <rect x="255" y="270" width="10" height="50" fill="#ef4444"/>

    <line x1="300" y1="220" x2="300" y2="320" stroke="#22c55e"/>
    <rect x="295" y="240" width="10" height="60" fill="#22c55e"/>

    <line x1="340" y1="230" x2="340" y2="330" stroke="#22c55e"/>
    <rect x="335" y="250" width="10" height="50" fill="#22c55e"/>

    <line x1="380" y1="240" x2="380" y2="340" stroke="#ef4444"/>
    <rect x="375" y="260" width="10" height="55" fill="#ef4444"/>

    <line x1="420" y1="220" x2="420" y2="320" stroke="#22c55e"/>
    <rect x="415" y="240" width="10" height="50" fill="#22c55e"/>

    <line x1="460" y1="200" x2="460" y2="300" stroke="#22c55e"/>
    <rect x="455" y="220" width="10" height="55" fill="#22c55e"/>

    <line x1="500" y1="210" x2="500" y2="310" stroke="#22c55e"/>
    <rect x="495" y="230" width="10" height="50" fill="#22c55e"/>
  </g>

  <!-- Order book -->
  <rect x="580" y="110" width="160" height="360" rx="8" fill="#0f172a"/>
  <text x="600" y="140" font-family="system-ui" font-size="12" font-weight="bold" fill="white">Order Book</text>

  <!-- Sell orders -->
  <rect x="590" y="160" width="140" height="16" rx="2" fill="#ef4444" opacity="0.2"/>
  <text x="600" y="172" font-family="system-ui" font-size="10" fill="#ef4444">43,280 - 0.5</text>
  <rect x="590" y="180" width="120" height="16" rx="2" fill="#ef4444" opacity="0.15"/>
  <text x="600" y="192" font-family="system-ui" font-size="10" fill="#ef4444">43,275 - 1.2</text>
  <rect x="590" y="200" width="100" height="16" rx="2" fill="#ef4444" opacity="0.1"/>
  <text x="600" y="212" font-family="system-ui" font-size="10" fill="#ef4444">43,270 - 0.8</text>

  <!-- Current price -->
  <rect x="590" y="230" width="140" height="24" rx="4" fill="#3b82f6"/>
  <text x="620" y="247" font-family="system-ui" font-size="12" font-weight="bold" fill="white">43,256.78</text>

  <!-- Buy orders -->
  <rect x="590" y="270" width="140" height="16" rx="2" fill="#22c55e" opacity="0.2"/>
  <text x="600" y="282" font-family="system-ui" font-size="10" fill="#22c55e">43,250 - 2.1</text>
  <rect x="590" y="290" width="120" height="16" rx="2" fill="#22c55e" opacity="0.15"/>
  <text x="600" y="302" font-family="system-ui" font-size="10" fill="#22c55e">43,245 - 1.5</text>
  <rect x="590" y="310" width="100" height="16" rx="2" fill="#22c55e" opacity="0.1"/>
  <text x="600" y="322" font-family="system-ui" font-size="10" fill="#22c55e">43,240 - 0.9</text>

  <!-- Bottom indicators -->
  <rect x="60" y="490" width="100" height="30" rx="4" fill="#3b82f6" opacity="0.2"/>
  <text x="80" y="510" font-family="system-ui" font-size="11" fill="#3b82f6">RSI: 65.4</text>
  <rect x="170" y="490" width="100" height="30" rx="4" fill="#8b5cf6" opacity="0.2"/>
  <text x="185" y="510" font-family="system-ui" font-size="11" fill="#8b5cf6">MACD: +</text>
  <rect x="280" y="490" width="100" height="30" rx="4" fill="#22c55e" opacity="0.2"/>
  <text x="295" y="510" font-family="system-ui" font-size="11" fill="#22c55e">Vol: 12.4M</text>
</svg>
